<svg width="562" height="156" viewBox="0 0 562 156" fill="none" xmlns="http://www.w3.org/2000/svg">
<path d="M16.0005 7.15125V122.323H0.733887V7.15125H16.0005ZM64.2524 58.9628V71.4608H12.6782V58.9628H64.2524ZM72.0835 7.15125V19.6493H12.6782V7.15125H72.0835ZM127.347 102.548V36.7352H142.06V122.323H128.059L127.347 102.548ZM130.116 84.5126L136.206 84.3544C136.206 90.0497 135.6 95.3231 134.387 100.175C133.227 104.974 131.328 109.14 128.692 112.673C126.055 116.206 122.601 118.974 118.329 120.978C114.058 122.93 108.864 123.905 102.746 123.905C98.5804 123.905 94.7572 123.299 91.2767 122.086C87.849 120.873 84.8958 119.001 82.4173 116.47C79.9388 113.938 78.014 110.642 76.6429 106.582C75.3246 102.521 74.6654 97.6434 74.6654 91.9481V36.7352H89.2992V92.1063C89.2992 95.9559 89.721 99.1464 90.5648 101.678C91.4613 104.156 92.6478 106.134 94.1244 107.61C95.6537 109.034 97.3412 110.036 99.1869 110.616C101.085 111.196 103.036 111.486 105.04 111.486C111.263 111.486 116.194 110.3 119.832 107.927C123.471 105.501 126.081 102.258 127.663 98.1971C129.298 94.0839 130.116 89.5223 130.116 84.5126ZM167.66 55.0077V122.323H153.027V36.7352H166.869L167.66 55.0077ZM164.18 76.286L158.089 76.0487C158.142 70.1952 159.012 64.7899 160.699 59.8329C162.387 54.8231 164.76 50.4725 167.819 46.7811C170.877 43.0897 174.516 40.2421 178.735 38.2382C183.006 36.1815 187.726 35.1532 192.894 35.1532C197.112 35.1532 200.909 35.7333 204.284 36.8934C207.659 38.0009 210.533 39.7938 212.906 42.2723C215.332 44.7509 217.178 47.9677 218.444 51.9227C219.709 55.8251 220.342 60.5975 220.342 66.2401V122.323H205.629V66.0819C205.629 61.5995 204.97 58.0135 203.652 55.3241C202.333 52.5819 200.408 50.6044 197.877 49.3915C195.346 48.1259 192.235 47.493 188.543 47.493C184.904 47.493 181.582 48.2577 178.576 49.787C175.623 51.3163 173.066 53.4257 170.904 56.1151C168.794 58.8046 167.133 61.8895 165.92 65.37C164.76 68.7977 164.18 72.4364 164.18 76.286ZM245.863 55.0077V122.323H231.23V36.7352H245.072L245.863 55.0077ZM242.383 76.286L236.292 76.0487C236.345 70.1952 237.215 64.7899 238.902 59.8329C240.59 54.8231 242.963 50.4725 246.021 46.7811C249.08 43.0897 252.719 40.2421 256.938 38.2382C261.209 36.1815 265.929 35.1532 271.097 35.1532C275.315 35.1532 279.112 35.7333 282.487 36.8934C285.862 38.0009 288.736 39.7938 291.109 42.2723C293.535 44.7509 295.381 47.9677 296.646 51.9227C297.912 55.8251 298.545 60.5975 298.545 66.2401V122.323H283.832V66.0819C283.832 61.5995 283.173 58.0135 281.855 55.3241C280.536 52.5819 278.611 50.6044 276.08 49.3915C273.549 48.1259 270.438 47.493 266.746 47.493C263.107 47.493 259.785 48.2577 256.779 49.787C253.826 51.3163 251.269 53.4257 249.106 56.1151C246.997 58.8046 245.336 61.8895 244.123 65.37C242.963 68.7977 242.383 72.4364 242.383 76.286ZM359.899 107.689V63.6298C359.899 60.2548 359.214 57.328 357.843 54.8495C356.524 52.3182 354.52 50.3671 351.831 48.996C349.141 47.6249 345.819 46.9393 341.864 46.9393C338.173 46.9393 334.93 47.5721 332.135 48.8378C329.392 50.1034 327.23 51.7645 325.648 53.8212C324.119 55.8778 323.354 58.0927 323.354 60.4657H308.721C308.721 57.4071 309.512 54.3749 311.094 51.369C312.676 48.3632 314.943 45.6473 317.896 43.2216C320.902 40.743 324.488 38.7919 328.654 37.368C332.873 35.8915 337.566 35.1532 342.734 35.1532C348.957 35.1532 354.441 36.2079 359.187 38.3173C363.986 40.4266 367.73 43.6171 370.42 47.8885C373.162 52.1073 374.533 57.4071 374.533 63.788V103.655C374.533 106.503 374.77 109.535 375.245 112.752C375.772 115.969 376.537 118.737 377.539 121.057V122.323H362.272C361.534 120.636 360.954 118.394 360.532 115.599C360.11 112.752 359.899 110.115 359.899 107.689ZM362.431 70.4325L362.589 80.7157H347.797C343.631 80.7157 339.913 81.0585 336.643 81.744C333.374 82.3768 330.632 83.3524 328.417 84.6708C326.202 85.9891 324.515 87.6503 323.354 89.6542C322.194 91.6053 321.614 93.8993 321.614 96.536C321.614 99.2255 322.221 101.678 323.433 103.892C324.646 106.107 326.466 107.874 328.891 109.192C331.37 110.458 334.402 111.091 337.988 111.091C342.471 111.091 346.426 110.141 349.853 108.243C353.281 106.345 355.997 104.024 358.001 101.282C360.057 98.5399 361.165 95.8768 361.323 93.2928L367.572 100.333C367.203 102.548 366.201 105 364.566 107.689C362.932 110.379 360.743 112.963 358.001 115.441C355.311 117.867 352.095 119.897 348.35 121.532C344.659 123.114 340.493 123.905 335.852 123.905C330.052 123.905 324.963 122.771 320.586 120.504C316.262 118.236 312.887 115.204 310.461 111.407C308.088 107.557 306.901 103.26 306.901 98.5135C306.901 93.9257 307.798 89.8915 309.591 86.411C311.384 82.8778 313.968 79.951 317.343 77.6307C320.718 75.2577 324.778 73.4647 329.524 72.2518C334.27 71.0389 339.57 70.4325 345.424 70.4325H362.431ZM402.111 0.82312V122.323H387.398V0.82312H402.111ZM428.898 53.1884V155.229H414.185V36.7352H427.632L428.898 53.1884ZM486.563 78.8173V80.4784C486.563 86.701 485.825 92.4755 484.348 97.8016C482.872 103.075 480.71 107.663 477.862 111.565C475.067 115.468 471.613 118.5 467.5 120.662C463.386 122.824 458.667 123.905 453.34 123.905C447.909 123.905 443.11 123.009 438.944 121.216C434.778 119.423 431.245 116.812 428.344 113.385C425.444 109.957 423.124 105.844 421.383 101.045C419.696 96.246 418.536 90.8407 417.903 84.829V75.9696C418.536 69.6415 419.722 63.9725 421.462 58.9628C423.203 53.953 425.497 49.6815 428.344 46.1483C431.245 42.5624 434.751 39.8466 438.865 38.0009C442.978 36.1024 447.724 35.1532 453.103 35.1532C458.482 35.1532 463.254 36.2079 467.42 38.3173C471.586 40.3739 475.093 43.327 477.941 47.1766C480.789 51.0262 482.924 55.6405 484.348 61.0194C485.825 66.3456 486.563 72.2782 486.563 78.8173ZM471.85 80.4784V78.8173C471.85 74.5458 471.402 70.538 470.505 66.7938C469.609 62.9969 468.211 59.6747 466.313 56.827C464.467 53.9266 462.094 51.6591 459.194 50.0243C456.293 48.3368 452.839 47.493 448.832 47.493C445.14 47.493 441.923 48.1259 439.181 49.3915C436.492 50.6571 434.198 52.371 432.299 54.5331C430.401 56.6425 428.845 59.0682 427.632 61.8104C426.472 64.4999 425.602 67.2948 425.022 70.1952V90.6825C426.077 94.3739 427.553 97.8544 429.452 101.124C431.35 104.341 433.881 106.951 437.045 108.955C440.21 110.906 444.191 111.882 448.99 111.882C452.945 111.882 456.346 111.064 459.194 109.43C462.094 107.742 464.467 105.448 466.313 102.548C468.211 99.6473 469.609 96.3251 470.505 92.5809C471.402 88.7841 471.85 84.7499 471.85 80.4784ZM508.525 0.82312V122.323H493.891V0.82312H508.525ZM505.044 76.286L498.953 76.0487C499.006 70.1952 499.876 64.7899 501.564 59.8329C503.251 54.8231 505.624 50.4725 508.683 46.7811C511.742 43.0897 515.38 40.2421 519.599 38.2382C523.87 36.1815 528.59 35.1532 533.758 35.1532C537.977 35.1532 541.774 35.7333 545.149 36.8934C548.524 38.0009 551.398 39.7938 553.771 42.2723C556.197 44.7509 558.042 47.9677 559.308 51.9227C560.574 55.8251 561.206 60.5975 561.206 66.2401V122.323H546.494V66.0819C546.494 61.5995 545.834 58.0135 544.516 55.3241C543.198 52.5819 541.273 50.6044 538.742 49.3915C536.21 48.1259 533.099 47.493 529.408 47.493C525.769 47.493 522.447 48.2577 519.441 49.787C516.488 51.3163 513.93 53.4257 511.768 56.1151C509.659 58.8046 507.997 61.8895 506.785 65.37C505.624 68.7977 505.044 72.4364 505.044 76.286Z" fill="white"/>
</svg>
