<svg width="143" height="130" viewBox="0 0 143 130" fill="none" xmlns="http://www.w3.org/2000/svg">
<path d="M59.2681 77.8852L4.39668 8.83351C2.85535 6.82978 4.24255 3.90125 6.86281 3.90125H136.335C138.955 3.90125 140.342 6.82978 138.801 8.83351L83.9294 77.8852V109.174C83.9294 111.178 83.0046 113.028 81.3092 114.261L64.2004 126.129C62.1966 127.516 59.4222 126.129 59.4222 123.663V77.8852H59.2681Z" fill="#FAFDFF"/>
<path d="M62.5049 129.828C61.5801 129.828 60.5012 129.519 59.5764 129.057C57.5727 127.978 56.3396 125.974 56.3396 123.662V79.1179L1.93059 10.6828C0.389253 8.83317 0.23512 6.36703 1.31405 4.20917C2.39299 2.0513 4.55085 0.818237 6.86285 0.818237H136.335C138.647 0.818237 140.805 2.20544 141.884 4.20917C142.962 6.36703 142.654 8.83317 141.267 10.6828L87.0121 78.9638V109.174C87.0121 112.257 85.6249 115.031 83.1588 116.726L66.05 128.595C64.9711 129.366 63.738 129.828 62.5049 129.828ZM61.2719 75.4191C62.0425 76.0356 62.5049 76.9604 62.5049 77.8852V123.663L79.6137 111.795C80.3844 111.178 80.8468 110.253 80.8468 109.174V77.8852C80.8468 77.1146 81.1551 76.498 81.4633 76.0356L136.335 6.98395H6.86285L61.2719 75.4191Z" fill="white"/>
<path d="M6.86292 6.98401H136.027L119.38 28.5627H25.3589L6.86292 6.98401Z" fill="#FAF9FF"/>
<path d="M100.884 31.6454H96.2602C94.5647 31.6454 93.1775 30.2582 93.1775 28.5628C93.1775 26.8673 94.5647 25.4801 96.2602 25.4801H100.884C102.58 25.4801 103.967 26.8673 103.967 28.5628C103.967 30.2582 102.58 31.6454 100.884 31.6454Z" fill="white"/>
<path d="M82.3881 31.6453H22.2761C20.5807 31.6453 19.1935 30.2581 19.1935 28.5626C19.1935 26.8672 20.5807 25.48 22.2761 25.48H82.3881C84.0836 25.48 85.4708 26.8672 85.4708 28.5626C85.4708 30.2581 84.0836 31.6453 82.3881 31.6453Z" fill="white"/>
</svg>
