<svg width="745" height="191" viewBox="0 0 745 191" fill="none" xmlns="http://www.w3.org/2000/svg">
<path d="M59.2681 107.885L4.39668 38.8335C2.85535 36.8298 4.24255 33.9012 6.86281 33.9012H136.335C138.955 33.9012 140.342 36.8298 138.801 38.8335L83.9294 107.885V139.174C83.9294 141.178 83.0046 143.028 81.3092 144.261L64.2004 156.129C62.1966 157.516 59.4222 156.129 59.4222 153.663V107.885H59.2681Z" fill="#FAFDFF"/>
<path d="M62.5049 159.828C61.5801 159.828 60.5012 159.519 59.5764 159.057C57.5727 157.978 56.3396 155.974 56.3396 153.662V109.118L1.93059 40.6828C0.389253 38.8332 0.23512 36.367 1.31405 34.2092C2.39299 32.0513 4.55085 30.8182 6.86285 30.8182H136.335C138.647 30.8182 140.805 32.2054 141.884 34.2092C142.962 36.367 142.654 38.8332 141.267 40.6828L87.0121 108.964V139.174C87.0121 142.257 85.6249 145.031 83.1588 146.726L66.05 158.595C64.9711 159.366 63.738 159.828 62.5049 159.828ZM61.2719 105.419C62.0425 106.036 62.5049 106.96 62.5049 107.885V153.663L79.6137 141.795C80.3844 141.178 80.8468 140.253 80.8468 139.174V107.885C80.8468 107.115 81.1551 106.498 81.4633 106.036L136.335 36.984H6.86285L61.2719 105.419Z" fill="white"/>
<path d="M6.86292 36.984H136.027L119.38 58.5627H25.3589L6.86292 36.984Z" fill="#FAF9FF"/>
<path d="M100.884 61.6454H96.2602C94.5647 61.6454 93.1775 60.2582 93.1775 58.5628C93.1775 56.8673 94.5647 55.4801 96.2602 55.4801H100.884C102.58 55.4801 103.967 56.8673 103.967 58.5628C103.967 60.2582 102.58 61.6454 100.884 61.6454Z" fill="white"/>
<path d="M82.3881 61.6453H22.2761C20.5807 61.6453 19.1935 60.2581 19.1935 58.5626C19.1935 56.8672 20.5807 55.48 22.2761 55.48H82.3881C84.0836 55.48 85.4708 56.8672 85.4708 58.5626C85.4708 60.2581 84.0836 61.6453 82.3881 61.6453Z" fill="white"/>
<path d="M188 35.1512V150.323H172.734V35.1512H188ZM236.252 86.9628V99.4608H184.678V86.9628H236.252ZM244.083 35.1512V47.6493H184.678V35.1512H244.083ZM299.347 130.548V64.7352H314.06V150.323H300.059L299.347 130.548ZM302.116 112.513L308.206 112.354C308.206 118.05 307.6 123.323 306.387 128.175C305.227 132.974 303.328 137.14 300.692 140.673C298.055 144.206 294.601 146.974 290.329 148.978C286.058 150.93 280.864 151.905 274.746 151.905C270.58 151.905 266.757 151.299 263.277 150.086C259.849 148.873 256.896 147.001 254.417 144.47C251.939 141.938 250.014 138.642 248.643 134.582C247.325 130.521 246.665 125.643 246.665 119.948V64.7352H261.299V120.106C261.299 123.956 261.721 127.146 262.565 129.678C263.461 132.156 264.648 134.134 266.124 135.61C267.654 137.034 269.341 138.036 271.187 138.616C273.085 139.196 275.036 139.486 277.04 139.486C283.263 139.486 288.194 138.3 291.832 135.927C295.471 133.501 298.081 130.258 299.663 126.197C301.298 122.084 302.116 117.522 302.116 112.513ZM339.66 83.0077V150.323H325.027V64.7352H338.869L339.66 83.0077ZM336.18 104.286L330.089 104.049C330.142 98.1952 331.012 92.7899 332.699 87.8329C334.387 82.8231 336.76 78.4725 339.819 74.7811C342.877 71.0897 346.516 68.2421 350.735 66.2382C355.006 64.1815 359.726 63.1532 364.894 63.1532C369.112 63.1532 372.909 63.7333 376.284 64.8934C379.659 66.0009 382.533 67.7938 384.906 70.2723C387.332 72.7509 389.178 75.9677 390.444 79.9227C391.709 83.8251 392.342 88.5975 392.342 94.2401V150.323H377.629V94.0819C377.629 89.5995 376.97 86.0135 375.652 83.3241C374.333 80.5819 372.408 78.6044 369.877 77.3915C367.346 76.1259 364.235 75.493 360.543 75.493C356.904 75.493 353.582 76.2577 350.576 77.787C347.623 79.3163 345.066 81.4257 342.904 84.1151C340.794 86.8046 339.133 89.8895 337.92 93.37C336.76 96.7977 336.18 100.436 336.18 104.286ZM417.863 83.0077V150.323H403.23V64.7352H417.072L417.863 83.0077ZM414.383 104.286L408.292 104.049C408.345 98.1952 409.215 92.7899 410.902 87.8329C412.59 82.8231 414.963 78.4725 418.021 74.7811C421.08 71.0897 424.719 68.2421 428.938 66.2382C433.209 64.1815 437.929 63.1532 443.097 63.1532C447.315 63.1532 451.112 63.7333 454.487 64.8934C457.862 66.0009 460.736 67.7938 463.109 70.2723C465.535 72.7509 467.381 75.9677 468.646 79.9227C469.912 83.8251 470.545 88.5975 470.545 94.2401V150.323H455.832V94.0819C455.832 89.5995 455.173 86.0135 453.855 83.3241C452.536 80.5819 450.611 78.6044 448.08 77.3915C445.549 76.1259 442.438 75.493 438.746 75.493C435.107 75.493 431.785 76.2577 428.779 77.787C425.826 79.3163 423.269 81.4257 421.106 84.1151C418.997 86.8046 417.336 89.8895 416.123 93.37C414.963 96.7977 414.383 100.436 414.383 104.286ZM531.899 135.689V91.6298C531.899 88.2548 531.214 85.328 529.843 82.8495C528.524 80.3182 526.52 78.3671 523.831 76.996C521.141 75.6249 517.819 74.9393 513.864 74.9393C510.173 74.9393 506.93 75.5721 504.135 76.8378C501.392 78.1034 499.23 79.7645 497.648 81.8212C496.119 83.8778 495.354 86.0927 495.354 88.4657H480.721C480.721 85.4071 481.512 82.3749 483.094 79.369C484.676 76.3632 486.943 73.6473 489.896 71.2216C492.902 68.743 496.488 66.7919 500.654 65.368C504.873 63.8915 509.566 63.1532 514.734 63.1532C520.957 63.1532 526.441 64.2079 531.187 66.3173C535.986 68.4266 539.73 71.6171 542.42 75.8885C545.162 80.1073 546.533 85.4071 546.533 91.788V131.655C546.533 134.503 546.77 137.535 547.245 140.752C547.772 143.969 548.537 146.737 549.539 149.057V150.323H534.272C533.534 148.636 532.954 146.394 532.532 143.599C532.11 140.752 531.899 138.115 531.899 135.689ZM534.431 98.4325L534.589 108.716H519.797C515.631 108.716 511.913 109.058 508.643 109.744C505.374 110.377 502.632 111.352 500.417 112.671C498.202 113.989 496.515 115.65 495.354 117.654C494.194 119.605 493.614 121.899 493.614 124.536C493.614 127.225 494.221 129.678 495.433 131.892C496.646 134.107 498.466 135.874 500.891 137.192C503.37 138.458 506.402 139.091 509.988 139.091C514.471 139.091 518.426 138.141 521.853 136.243C525.281 134.345 527.997 132.024 530.001 129.282C532.057 126.54 533.165 123.877 533.323 121.293L539.572 128.333C539.203 130.548 538.201 133 536.566 135.689C534.932 138.379 532.743 140.963 530.001 143.441C527.311 145.867 524.095 147.897 520.35 149.532C516.659 151.114 512.493 151.905 507.852 151.905C502.052 151.905 496.963 150.771 492.586 148.504C488.262 146.236 484.887 143.204 482.461 139.407C480.088 135.557 478.901 131.26 478.901 126.514C478.901 121.926 479.798 117.891 481.591 114.411C483.384 110.878 485.968 107.951 489.343 105.631C492.718 103.258 496.778 101.465 501.524 100.252C506.27 99.0389 511.57 98.4325 517.424 98.4325H534.431ZM574.111 28.8231V150.323H559.398V28.8231H574.111ZM600.898 81.1884V183.229H586.185V64.7352H599.632L600.898 81.1884ZM658.563 106.817V108.478C658.563 114.701 657.825 120.475 656.348 125.802C654.872 131.075 652.71 135.663 649.862 139.565C647.067 143.468 643.613 146.5 639.5 148.662C635.386 150.824 630.667 151.905 625.34 151.905C619.909 151.905 615.11 151.009 610.944 149.216C606.778 147.423 603.245 144.812 600.344 141.385C597.444 137.957 595.124 133.844 593.383 129.045C591.696 124.246 590.536 118.841 589.903 112.829V103.97C590.536 97.6415 591.722 91.9725 593.462 86.9628C595.203 81.953 597.497 77.6815 600.344 74.1483C603.245 70.5624 606.751 67.8466 610.865 66.0009C614.978 64.1024 619.724 63.1532 625.103 63.1532C630.482 63.1532 635.254 64.2079 639.42 66.3173C643.586 68.3739 647.093 71.327 649.941 75.1766C652.789 79.0262 654.924 83.6405 656.348 89.0194C657.825 94.3456 658.563 100.278 658.563 106.817ZM643.85 108.478V106.817C643.85 102.546 643.402 98.538 642.505 94.7938C641.609 90.9969 640.211 87.6747 638.313 84.827C636.467 81.9266 634.094 79.6591 631.194 78.0243C628.293 76.3368 624.839 75.493 620.832 75.493C617.14 75.493 613.923 76.1259 611.181 77.3915C608.492 78.6571 606.198 80.371 604.299 82.5331C602.401 84.6425 600.845 87.0682 599.632 89.8104C598.472 92.4999 597.602 95.2948 597.022 98.1952V118.682C598.077 122.374 599.553 125.854 601.452 129.124C603.35 132.341 605.881 134.951 609.045 136.955C612.21 138.906 616.191 139.882 620.99 139.882C624.945 139.882 628.346 139.064 631.194 137.43C634.094 135.742 636.467 133.448 638.313 130.548C640.211 127.647 641.609 124.325 642.505 120.581C643.402 116.784 643.85 112.75 643.85 108.478ZM680.525 28.8231V150.323H665.891V28.8231H680.525ZM677.044 104.286L670.953 104.049C671.006 98.1952 671.876 92.7899 673.564 87.8329C675.251 82.8231 677.624 78.4725 680.683 74.7811C683.742 71.0897 687.38 68.2421 691.599 66.2382C695.87 64.1815 700.59 63.1532 705.758 63.1532C709.977 63.1532 713.774 63.7333 717.149 64.8934C720.524 66.0009 723.398 67.7938 725.771 70.2723C728.197 72.7509 730.042 75.9677 731.308 79.9227C732.574 83.8251 733.206 88.5975 733.206 94.2401V150.323H718.494V94.0819C718.494 89.5995 717.834 86.0135 716.516 83.3241C715.198 80.5819 713.273 78.6044 710.742 77.3915C708.21 76.1259 705.099 75.493 701.408 75.493C697.769 75.493 694.447 76.2577 691.441 77.787C688.488 79.3163 685.93 81.4257 683.768 84.1151C681.659 86.8046 679.997 89.8895 678.785 93.37C677.624 96.7977 677.044 100.436 677.044 104.286Z" fill="white"/>
</svg>
